<?xml version="1.0" encoding="utf-8"?>
<!-- Generator: Adobe Illustrator 26.5.0, SVG Export Plug-In . SVG Version: 6.00 Build 0)  -->
<svg version="1.1" id="_레이어_1" xmlns="http://www.w3.org/2000/svg" xmlns:xlink="http://www.w3.org/1999/xlink" x="0px"
	 y="0px" viewBox="0 0 218.3 140.1" style="enable-background:new 0 0 218.3 140.1;" xml:space="preserve">
<path d="M211,26.7c-10.1,6.2-41.9-8.9-47.4,1.6c-3.5,6.6,1.1,11.6,5.6,14.7c4.8,3.3,14.9,4.3,10.3,13.8c-2.3,4.7-13.1-1.1-17.2-3.6
	s-5.5-2.8-7.8-1.4c-3.7,2.3-2.8,13.5-6.2,16.3c-3.6,3-15.3-0.3-18.3,3.3c-1.3,1.6-3.3,6-2.1,9.3c2.8,7.7,10,9.9,4.4,15.5
	c-4,4-8.5-2.6-9.8-8.1c-0.6-2.8-5.2-5-7.6-6.6c-4.4-3-10.5-0.9-14.3-0.3c-8.1,1.2-10.1,11.7-8,23.1c3,16.3,2.4,35.7-8.3,35.7
	c-10.9,0-11.5-20.3-5.6-36.3c4-11,1.8-22.3-6.1-25.6c-11-4.5-7.7,15-12.8,15.8c-4.4,0.8-10.1-10.8-17-5.9
	c-10.2,7.3,5.6,39.2-7.5,39.9c-17.7,0.9,4.6-27.8-6.2-39.5c-2-2.2-21.3-0.8-23.3-3.1C-5.7,72.5,3.5,0.1,3.5,0.1s152.7-0.2,214.1,0.2
	C220.6,0.2,213.5,25.2,211,26.7L211,26.7z"/>
</svg>
