<?xml version="1.0" encoding="utf-8"?>
<!-- Generator: Adobe Illustrator 26.3.1, SVG Export Plug-In . SVG Version: 6.00 Build 0)  -->
<svg version="1.1" id="Layer_1" xmlns="http://www.w3.org/2000/svg" xmlns:xlink="http://www.w3.org/1999/xlink" x="0px" y="0px"
	 width="512px" height="512px" viewBox="0 0 512 512" style="enable-background:new 0 0 512 512;" xml:space="preserve">
<style type="text/css">
	.st0{fill:#EAFF3D;}
	.st1{fill:#81C32C;}
	.st2{fill:#FFFFFF;}
	.st3{stroke:#000000;stroke-width:2;stroke-miterlimit:10;}
</style>
<g>
	<g>
		<g>
			<path class="st0" d="M256,31.6c-33.5,0-212.4,191.6-198.6,243.7c6.4,23.9,79.1,28.1,79.1,28.1s24.2,52.4,16.8,78.5
				c-2.9,10.2-33.1,46.3,16.7,77.8c0,0,28-17.6,29.5-53.3c-0.2,3.7-2.4,51.9,29.1,63.6c0,0,27.3-5.8,27.3-60.3
				c0,54.5,27.3,60.3,27.3,60.3c31.6-11.7,29.4-59.9,29.1-63.6c1.5,35.7,29.6,53.3,29.6,53.3c49.8-31.6,19.6-67.7,16.7-77.8
				c-7.4-26.1,16.8-78.5,16.8-78.5s72.7-4.2,79.1-28.1C468.4,223.3,289.5,31.6,256,31.6z"/>
		</g>
		<path class="st1" d="M309.6,341.7c-34.3,0-37.5-14.2-53.6-14.2c-16.1,0-19.3,14.2-53.6,14.2c-36.1,0-65.5-33.9-65.5-75.8
			c0-39.4,24.8-79.1,76.3-74.6c26,2.2,32.8,13.1,42.8,13.1c10,0,16.8-10.9,42.8-13.1c51.5-4.4,76.3,35.3,76.3,74.6
			C375.1,307.8,345.8,341.7,309.6,341.7z"/>
		<path class="st2" d="M306.5,199.5c-22.3,0-41.4,13.9-50.5,34.1c-9-20.2-28.2-34.1-50.4-34.1c-30.9,0-55.9,26.9-55.9,60
			c0,33.1,25.1,60,55.9,60c22.2,0,41.4-13.9,50.4-34.1c9,20.2,28.2,34.1,50.5,34.1c30.9,0,55.9-26.9,55.9-60
			C362.4,226.4,337.3,199.5,306.5,199.5z M209.9,271.4c-18.3,0-33.1-14-33.1-31.2c0-17.3,14.8-31.3,33.1-31.3
			c18.3,0,33.1,14,33.1,31.3C242.9,257.4,228.1,271.4,209.9,271.4z M302.2,271.4c-18.3,0-33.1-14-33.1-31.2
			c0-17.3,14.8-31.3,33.1-31.3c18.3,0,33.1,14,33.1,31.3C335.3,257.4,320.4,271.4,302.2,271.4z"/>
	</g>
	<path class="st3" d="M421.7,156.1C397.6,124.8,298.9,15,256,15c-42.9,0-141.6,109.8-165.7,141.1c-59.3,77-61.8,113.1-57.3,130
		c8.1,30.3,42.1,33.5,93.1,33.7c7,18.3,6.9,46.3,4.8,55.3c-0.4,0.9-0.9,1.8-1.5,3c-21.2,42.2-11.1,71.6,25.6,99.7
		c7,5.3,14.8,9.8,14.8,9.8s6.5-2.3,13.2-8.5c5.4-5,10.9-14.7,12.2-21.7c5.7,28.9,34.1,39.6,34.1,39.6s23.7-7.9,26.8-32.4
		c3.1,24.5,26.8,32.4,26.8,32.4s28.4-10.8,34.1-39.6c1.2,7,6.8,16.7,12.2,21.7c6.7,6.2,13.2,8.5,13.2,8.5s7.9-4.4,14.8-9.8
		c36.7-28.1,46.8-57.5,25.6-99.7c-0.6-1.1-1.1-2.1-1.5-3c-2.1-9-2.3-37,4.8-55.3c51-0.3,85-3.4,93.1-33.7
		C483.5,269.2,480.9,233.1,421.7,156.1z M454.9,275.3c-6.4,24-79.2,28.2-79.2,28.2s-24.3,52.5-16.8,78.6
		c2.9,10.2,33.1,46.3-16.8,77.9c0,0-28.1-17.6-29.6-53.4c0.2,3.7,2.4,52-29.2,63.7c0,0-27.3-5.8-27.4-60.4
		c0,54.6-27.3,60.4-27.4,60.4c-31.6-11.7-29.4-60-29.2-63.7c-1.5,35.8-29.6,53.4-29.6,53.4c-49.9-31.6-19.6-67.8-16.7-77.9
		c7.4-26.1-16.8-78.6-16.8-78.6s-72.8-4.2-79.2-28.2C43.3,223.1,222.4,31.2,256,31.2C289.6,31.2,468.7,223.1,454.9,275.3z
		 M298.8,191.1c-26,2.2-32.8,13.1-42.8,13.1c-10,0-16.8-10.9-42.8-13.1c-51.6-4.4-76.4,35.3-76.4,74.8c0,41.9,29.3,75.9,65.6,75.9
		c34.4,0,37.6-14.3,53.7-14.3c16.1,0,19.3,14.3,53.7,14.3c36.2,0,65.6-34,65.6-75.9C375.2,226.4,350.4,186.6,298.8,191.1z
		 M362.5,259.4c0,33.2-25.1,60.1-56,60.1c-22.3,0-41.5-14-50.5-34.1c-9,20.2-28.2,34.1-50.5,34.1c-30.9,0-56-26.9-56-60.1
		c0-33.2,25.1-60.1,56-60.1c22.3,0,41.5,14,50.5,34.2c9-20.2,28.3-34.2,50.5-34.2C337.5,199.3,362.5,226.3,362.5,259.4z M242.9,240
		c0,17.3-14.8,31.3-33.1,31.3c-18.3,0-33.1-14-33.1-31.3c0-17.3,14.8-31.3,33.1-31.3C228.1,208.7,242.9,222.7,242.9,240z
		 M302.2,208.7c18.3,0,33.1,14,33.1,31.3c0,17.3-14.8,31.3-33.1,31.3c-18.3,0-33.1-14-33.1-31.3
		C269.1,222.7,283.9,208.7,302.2,208.7z"/>
</g>
</svg>
