<svg version="1.1" xmlns="http://www.w3.org/2000/svg" viewBox="0 0 512 512" width="36" height="36">
<rect x="20" y="20" width="472" height="472" fill="#fff"/>
<path d="M381,193.8c-0.4-7.3-1.1-13.2-2.1-17.7c-1-4.5-2.1-8.1-3.4-11c-1.2-3.2-2.7-6.3-4.6-9.1c-1.8-2.8-4-5.7-6.4-8.5
		c-2.8-2.4-5.7-4.6-8.5-6.4c-2.8-1.8-5.9-3.4-9.1-4.6c-2.8-1.2-6.5-2.3-11-3.4c-4.5-1-10.4-1.7-17.7-2.1c-8.1-0.4-15.4-0.6-21.9-0.6
		c-6.5,0-19.9,0-40.2,0c-20.3,0-33.7,0-40.2,0c-6.5,0-13.8,0.2-21.9,0.6c-7.3,0.4-13.2,1.1-17.7,2.1c-4.5,1-8.1,2.1-11,3.4
		c-3.3,1.2-6.3,2.7-9.1,4.6c-2.8,1.8-5.7,4.2-8.5,7c-2.4,2.4-4.6,5.1-6.4,7.9c-1.8,2.8-3.4,6.1-4.6,9.8c-1.2,2.4-2.3,5.9-3.4,10.4
		c-1,4.5-1.7,10.4-2.1,17.7c-0.4,8.1-0.7,15.4-0.9,21.9c-0.2,6.5-0.3,19.9-0.3,40.2c0,20.7,0.1,34.2,0.3,40.5
		c0.2,6.3,0.5,13.5,0.9,21.6c0.4,7.3,1.1,13.2,2.1,17.7c1,4.5,2.1,8.1,3.4,11c1.2,3.7,2.7,6.8,4.6,9.4c1.8,2.6,4,5.4,6.4,8.2
		c2.8,2.4,5.7,4.6,8.5,6.4c2.8,1.8,5.9,3.6,9.1,5.2c2.8,0.8,6.5,1.7,11,2.7c4.5,1,10.4,1.7,17.7,2.1c8.1,0.4,15.4,0.7,21.9,0.9
		c6.5,0.2,19.9,0.3,40.2,0.3c20.3,0,33.7-0.1,40.2-0.3c6.5-0.2,13.8-0.5,21.9-0.9c7.3-0.4,13.2-1.1,17.7-2.1c4.5-1,8.1-1.9,11-2.7
		c3.2-1.6,6.3-3.4,9.1-5.2c2.8-1.8,5.7-4,8.5-6.4c2.4-2.8,4.6-5.6,6.4-8.2c1.8-2.6,3.4-5.8,4.6-9.4c1.2-2.8,2.3-6.5,3.4-11
		c1-4.5,1.7-10.4,2.1-17.7c0.4-8.1,0.7-15.3,0.9-21.6c0.2-6.3,0.3-19.8,0.3-40.5c0-20.3-0.1-33.7-0.3-40.2
		C381.7,209.3,381.4,202,381,193.8z M311.8,311.8c-15.2,15.2-33.8,22.9-55.8,22.9s-40.5-7.6-55.8-22.9s-22.9-33.8-22.9-55.8
		c0-21.9,7.6-40.5,22.9-55.8c15.2-15.2,33.8-22.9,55.8-22.9s40.5,7.6,55.8,22.9c15.2,15.2,22.9,33.8,22.9,55.8
		C334.6,277.9,327,296.5,311.8,311.8z M351.1,187.1c-3.7,3.7-7.9,5.5-12.8,5.5c-5.3,0-9.8-1.8-13.4-5.5c-3.7-3.7-5.5-7.9-5.5-12.8
		c0-5.3,1.8-9.8,5.5-13.4c3.7-3.7,7.9-5.5,12.8-5.5c5.3,0,9.8,1.8,13.4,5.5c3.7,3.7,5.5,8.1,5.5,13.4
		C356.6,179.2,354.7,183.5,351.1,187.1z" fill="#d83274"/>
<path d="M256,204.8c-14.2,0-26.3,5-36.3,14.9c-10,10-14.9,22-14.9,36.3c0,14.2,5,26.3,14.9,36.3c10,10,22,14.9,36.3,14.9
	c14.2,0,26.3-5,36.3-14.9c10-10,14.9-22,14.9-36.3c0-14.2-5-26.3-14.9-36.3C282.3,209.8,270.2,204.8,256,204.8z" fill="#d83274"/>
<path d="M503.6,8.4c-5.6-5.6-12.3-8.4-20-8.4H28.4C20.7,0,14,2.8,8.4,8.4C2.8,14.1,0,20.7,0,28.4v455.1c0,7.7,2.8,14.4,8.4,20
	c5.6,5.6,12.3,8.4,20,8.4h455.1c7.7,0,14.4-2.8,20-8.4c5.6-5.6,8.4-12.3,8.4-20V28.4C512,20.7,509.2,14.1,503.6,8.4z M409.6,256
	c0,20.7-0.1,34.4-0.3,41.1c-0.2,6.7-0.3,14.1-0.3,22.2c-0.4,8.1-1.2,15.1-2.4,21c-1.2,5.9-2.8,11.3-4.9,16.2c-2,4.9-4.5,9.6-7.3,14
	c-2.8,4.5-6.3,8.9-10.4,13.4c-4.5,4.1-8.8,7.5-13.1,10.4c-4.3,2.8-9,5.3-14.3,7.3c-4.9,1.6-10.3,3.1-16.2,4.6
	c-5.9,1.4-12.9,2.3-21,2.7c-8.1,0-15.5,0.1-22.2,0.3c-6.7,0.2-20.4,0.3-41.1,0.3s-34.4-0.1-41.1-0.3c-6.7-0.2-14.1-0.5-22.2-0.9
	c-8.1,0-15.1-0.7-21-2.1c-5.9-1.4-11.3-3-16.2-4.6c-4.9-2-9.6-4.5-14-7.3c-4.5-2.8-8.9-6.3-13.4-10.4c-4.1-4.5-7.5-8.8-10.4-13.1
	c-2.8-4.3-5.3-9-7.3-14.3c-1.6-4.9-3.2-10.3-4.6-16.2c-1.4-5.9-2.1-12.9-2.1-21c-0.4-8.1-0.7-15.5-0.9-22.2
	c-0.2-6.7-0.3-20.4-0.3-41.1c0-20.7,0.1-34.4,0.3-41.1c0.2-6.7,0.5-14.1,0.9-22.2c0-8.1,0.7-15.1,2.1-21c1.4-5.9,2.9-11.3,4.6-16.2
	c2-4.9,4.5-9.5,7.3-14c2.8-4.5,6.3-8.9,10.4-13.4c4.5-4.1,8.9-7.5,13.4-10.4c4.5-2.8,9.1-5.3,14-7.3c4.9-1.6,10.3-3.1,16.2-4.6
	c5.9-1.4,12.9-2.1,21-2.1c8.1-0.4,15.5-0.7,22.2-0.9c6.7-0.2,20.4-0.3,41.1-0.3s34.4,0.1,41.1,0.3c6.7,0.2,14.1,0.3,22.2,0.3
	c8.1,0.4,15.1,1.3,21,2.7c5.9,1.4,11.3,3,16.2,4.6c5.3,2,10.1,4.5,14.3,7.3c4.3,2.8,8.6,6.3,13.1,10.4c4.1,4.5,7.5,8.8,10.4,13.1
	c2.8,4.3,5.3,9,7.3,14.3c2,4.9,3.7,10.3,4.9,16.2c1.2,5.9,2,12.9,2.4,21c0.4,8.1,0.6,15.5,0.6,22.2
	C409.6,221.6,409.6,235.3,409.6,256z" fill="#d83274"/>
</svg>
