<svg width="278" height="67" viewBox="0 0 278 67" xmlns="http://www.w3.org/2000/svg" xmlns:xlink="http://www.w3.org/1999/xlink"><defs><path id="a" d="M-.4-.293h239v38H-.4z"/></defs><g transform="translate(.533)" fill="none" fill-rule="evenodd"><rect fill="#E50213" width="276.933" height="67" rx="14"/><g transform="translate(17.867 14.293)"><mask id="b" fill="#fff"><use xlink:href="#a"/></mask><path d="M235.272 28.828h.358v1.408h.464v-1.408h.355v-.407h-1.177v.407zm2.706-.407-.332 1.17-.341-1.17h-.621v1.815h.427l-.015-1.359.393 1.359h.307l.392-1.359-.015 1.359h.427V28.42h-.622zm-45.951-13.894c-1.658 0-3.14.673-4.045 1.768h-.048v-1.297h-4.428v15.234h4.428v-7.416c0-2.96 1.611-4.237 3.438-4.237 1.27 0 3.201.803 3.201 3.8v7.847h4.432v-8.172c0-5.124-3.542-7.527-6.978-7.527zm-21.881 6.44c.687-1.926 2.236-2.697 3.8-2.697 2.198 0 3.446 1.391 3.892 2.697h-7.692zm3.73-6.443c-4.587 0-7.968 4.053-7.968 8.067 0 4.146 3.456 8.116 8.009 8.116 3.316 0 6.038-1.86 7.216-4.18l-3.619-1.273c-.945 1.179-2.098 1.717-3.634 1.717-1.551 0-3.362-1.021-3.796-2.96h8.988c1.934 0 2.912-.38 2.912-1.825-.065-3.163-2.821-7.662-8.108-7.662zm-11.321-3.726h-4.42v4.199h-2.961v3.59h2.96V30.23h4.42V18.588h2.996v-3.591h-2.995v-4.2zm64.202 15.919c-2.213 0-4.012-1.837-4.012-4.094 0-2.257 1.8-4.093 4.012-4.093 2.213 0 4.012 1.836 4.012 4.093 0 2.257-1.8 4.094-4.012 4.094zm.002-12.193c-4.495 0-8.136 3.632-8.136 8.093 0 4.46 3.64 8.088 8.136 8.088 4.493 0 8.132-3.628 8.132-8.088 0-4.461-3.639-8.093-8.132-8.093zM208.69 26.736c-2.314 0-4.085-1.85-4.085-4.123s1.771-4.123 4.085-4.123c2.32 0 4.034 1.82 4.034 4.123 0 2.301-1.713 4.123-4.034 4.123zm4.01-10.622h-.077c-.35-.52-1.986-1.59-4.081-1.59-4.37 0-8.048 3.641-8.048 8.09 0 4.447 3.678 8.091 8.048 8.091 2.095 0 3.73-1.072 4.08-1.593h.078v1.124h4.433V8.789H212.7v7.325zm-88.991 5.934-8.984-11.81c-.927-1.219-1.812-1.593-2.528-1.593-1.693 0-2.583 1.02-2.583 2.484v19.1h4.755v-13.26l8.982 11.814c.927 1.215 1.813 1.59 2.529 1.59 1.694 0 2.583-1.019 2.583-2.482V8.788h-4.755v13.26zM82.303 8.64c-1.128 0-2.383.444-3.375 2.709-.68 1.555-5.346 12.119-5.346 12.119h-.09s-4.665-10.57-5.348-12.124c-.994-2.26-2.313-2.704-3.373-2.704-1.542 0-2.973 1.019-2.973 3.45v18.137h4.754V18.274h.095s3.774 8.579 4.428 10.062c.766 1.744 1.623 2.033 2.462 2.033.84 0 1.696-.29 2.462-2.033l4.43-10.062h.093v11.954h4.755V12.112c0-2.43-1.31-3.47-2.974-3.47zm-42.378 1.53C36.323 3.594 29.859-.293 22.405-.293c-8.774 0-17.85 5.836-17.85 15.602 0 6.858 5.883 9.663 6.134 9.78a1.954 1.954 0 0 0 2.541-.848l3.364-6.267 2.431 4.763a1.952 1.952 0 0 0 3.477 0l2.418-4.735 3.289 6.227a1.953 1.953 0 0 0 3.453-1.82l-5.046-9.552a1.972 1.972 0 0 0-1.739-1.04 1.95 1.95 0 0 0-1.725 1.064l-2.388 4.677-2.388-4.677a1.952 1.952 0 0 0-3.459-.036l-4.102 7.643c-1.088-.975-2.355-2.654-2.355-5.179 0-7.324 7.09-11.701 13.945-11.701 6.32 0 11.763 3.493 14.562 9.344a1.958 1.958 0 0 0 1.891 1.105c.189-.013.256-.01.293-.007.063.003.113.005.154.005 4.854 0 8.237 4.371 8.237 8.295 0 4.757-3.733 8.482-8.5 8.482-1.884 0-3.73-.76-4.648-1.468a1.954 1.954 0 0 0-2.396.011c-1.7 1.332-6.381 4.43-13.125 4.43-7.858 0-13.647-4.372-15.83-6.955a1.954 1.954 0 0 0-2.75-.233 1.95 1.95 0 0 0-.233 2.749c.721.853 7.374 8.34 18.813 8.34 6.674 0 11.592-2.493 14.41-4.435 1.692.91 3.814 1.462 5.759 1.462 6.955 0 12.404-5.439 12.404-12.383 0-5.72-4.602-11.834-11.521-12.181zM95.68 24.43l-3.71-9.455h-4.953l6.62 14.947c-.425 1.975-1.693 2.745-3.464 2.745l-.65.001v3.803h.843c3.384 0 5.138-.607 6.193-3.183l7.446-18.313h-4.988L95.68 24.43zm51.732-9.903c-1.66 0-3.142.673-4.046 1.768h-.048v-1.297h-4.429v15.234h4.429v-7.416c0-2.96 1.61-4.237 3.438-4.237 1.27 0 3.2.803 3.2 3.8v7.847h4.433v-8.172c0-5.124-3.542-7.527-6.977-7.527zm-13.621-6.7a2.587 2.587 0 1 0 0 5.175 2.587 2.587 0 0 0 0-5.174zm-2.214 22.41h4.43V14.992h-4.43v15.243z" fill="#FFF" mask="url(#b)"/></g></g></svg>