<svg width="86" height="86" viewBox="0 0 86 86" xmlns="http://www.w3.org/2000/svg"><path fill="#E60012" d="M0 86h86V0H0z"/><path d="M60.678 60.236H59.62v-2.789h1.058c.776 0 1.406.626 1.406 1.394 0 .77-.63 1.395-1.406 1.395zm-.049-3.8h-2.005v4.811h2.005c1.375 0 2.494-1.079 2.494-2.406 0-1.326-1.119-2.405-2.494-2.405zm-3.715 8.993a2.94 2.94 0 0 1 2.512 1.41l1.489-1.285a4.872 4.872 0 0 0-4.055-2.143c-2.693 0-4.884 2.173-4.884 4.844 0 2.672 2.191 4.845 4.884 4.845a4.872 4.872 0 0 0 4.055-2.143l-1.49-1.285a2.94 2.94 0 0 1-2.511 1.41c-1.6 0-2.903-1.268-2.903-2.827 0-1.558 1.302-2.826 2.903-2.826zm-14.114.205h2.924v7.15h1.97v-7.15h2.858v-1.927H42.8v1.927zm26.374 1.65H64.9v-3.577h-1.893v9.077H64.9v-3.62h4.274v3.62h1.894v-9.077h-1.894v3.578zm5.268 4.15-.343.988-.343-.988h-.378v1.35h.244v-1.036l.355 1.024.005.013h.234l.005-.013.356-1.024v1.037h.243v-1.351h-.378zm-5.599-11.095a1.504 1.504 0 0 1-1.507-1.498c0-.825.676-1.497 1.507-1.497.831 0 1.507.672 1.507 1.497 0 .827-.676 1.498-1.507 1.498zm0-4.065a2.578 2.578 0 0 0-2.583 2.568 2.579 2.579 0 0 0 2.583 2.567 2.578 2.578 0 0 0 2.583-2.567 2.578 2.578 0 0 0-2.583-2.568zm3.12 15.418h.42v1.093h.265v-1.093h.409v-.258h-1.094v.258zM46.152 60.356h-2.788v-1.128h2.578v-.87h-2.578v-1.039h2.788v-.883l-3.772.002v4.809l3.772-.001v-.89zm8.369.891v-4.81h-.985v3.16l-2.385-3.16h-.98v4.81h.983V58.03l2.41 3.217h.957zm-32.342 0h1.08v-4.81h-1.08v4.81zm-4.208 6.024c-1.322-.216-2.176-.459-2.176-1.07 0-.705.95-.976 2.227-.976 1.186 0 2.375.448 2.8.625l.65-1.571c-.46-.182-1.922-.7-3.544-.7-1.977 0-4.078.957-4.078 2.73 0 1.437 1.022 2.171 3.645 2.619 1.85.315 2.868.49 2.84 1.278-.017.435-.355 1.163-2.44 1.163-1.677 0-2.858-.602-3.269-.847l-.866 1.55c.462.241 2.01.962 4.004.962 2.911 0 4.45-1 4.45-2.894 0-1.096-.374-2.24-4.243-2.87zm14.528 3.022-1.939-6.586h-1.624l-1.928 6.562-1.76-6.562h-1.992l2.59 9.077h2.198l1.707-5.98 1.695 5.98h2.208l2.603-9.077h-1.991l-1.767 6.586zM27.9 58.03l2.408 3.217h.958v-4.81h-.984v3.16l-2.386-3.16h-.98v4.81h.984V58.03zm10.63 14.754h2.037v-9.077h-2.036v9.077zm.3-16.348h-4.11v1.021h1.55v3.79h1.044v-3.79h1.515v-1.02zM15.155 58.03l2.409 3.217h.957v-4.81h-.984v3.16l-2.386-3.16h-.98v4.81h.984V58.03zm14.26-34.433c0 2 1.635 3.623 3.652 3.623 2.017 0 3.652-1.622 3.652-3.623 0-2-1.635-3.622-3.652-3.622-2.017 0-3.652 1.622-3.652 3.622zm9.555 23.862h-5.643a6.81 6.81 0 0 1-4.827-1.983 6.698 6.698 0 0 1-2-4.79V21.919c0-1.81.71-3.51 1.999-4.788a6.811 6.811 0 0 1 4.828-1.984h5.643V47.46zm2.846-35.419h-8.489c-5.5 0-9.958 4.423-9.958 9.878v18.769c0 5.455 4.458 9.878 9.958 9.878h8.49a.283.283 0 0 0 .284-.283v-37.96a.283.283 0 0 0-.285-.282zm11.855 17.293c2.169 0 3.927 1.744 3.927 3.896 0 2.15-1.758 3.895-3.927 3.895s-3.927-1.744-3.927-3.895c0-2.152 1.758-3.896 3.927-3.896zm-7.399 21.232h5.977c5.5 0 9.959-4.423 9.959-9.878V21.918c0-5.455-4.459-9.878-9.959-9.878H46.24a.252.252 0 0 0-.253.251v37.991c0 .156.128.283.285.283z" fill="#FFF"/></svg>