<?xml version="1.0" encoding="UTF-8"?> <svg xmlns="http://www.w3.org/2000/svg" id="Layer_1" data-name="Layer 1" viewBox="0 0 114.03 154.33"><defs><style>.cls-1{fill:#fff;}.cls-2{fill:#231f20;}.cls-3{fill:#085ea9;}.cls-4{fill:#151011;}</style></defs><title>privacy_certified_globe_registered</title><path class="cls-1" d="M127.75,8.27h-114V162.6h114V8.27Z" transform="translate(-13.71 -8.27)"></path><polyline class="cls-2" points="112.38 1.66 112.38 152.67 1.66 152.67 1.66 1.66 112.38 1.66"></polyline><rect class="cls-1" x="7.67" y="7.31" width="98.75" height="23.03"></rect><rect class="cls-1" x="7.85" y="36.03" width="98.57" height="89.82"></rect><path class="cls-2" d="M27.17,20c2.18,0,3.11.59,3.11,2.57v3c0,1.88-.89,2.59-3,2.59h-.51v6.12H25.06V20Zm-.35,6.71h.31c1.07,0,1.29-.42,1.29-1.71v-1.9c0-1.28-.22-1.68-1.29-1.68h-.31Z" transform="translate(-13.71 -8.27)"></path><path class="cls-2" d="M33.67,20c2.1,0,3,.55,3,2.37v2.3c0,1.44-.52,2.07-2,2.23,1.58.12,2.05.77,2.05,2.38v5H34.83v-5c0-1.27-.17-1.62-1.46-1.62H33v6.61H31.19V20ZM33,26.2h.38c1.19,0,1.44-.37,1.44-1.62V23c0-1.24-.25-1.62-1.44-1.62H33Z" transform="translate(-13.71 -8.27)"></path><path class="cls-2" d="M40.06,20V34.24H38.18V20Z" transform="translate(-13.71 -8.27)"></path><path class="cls-2" d="M42.59,20l1.33,12h.14L45.3,20h1.63L45.11,34.24H42.75L40.77,20Z" transform="translate(-13.71 -8.27)"></path><path class="cls-2" d="M51.58,20l2.16,14.25H51.88l-.46-3.63H49.05l-.54,3.63H46.77L49.09,20Zm-2.34,9.18h2l-.89-7.64h-.08Z" transform="translate(-13.71 -8.27)"></path><path class="cls-2" d="M59.75,23.91H57.91v-1c0-1.14-.15-1.72-.77-1.72-.81,0-.91.62-.91,2V31c0,1.37.08,2,.87,2s.81-.51.81-1.64V30.08h1.86v1.31c0,2.23-.61,3.09-2.71,3.09s-2.69-1.15-2.69-3.83V23.57c0-2.69.56-3.8,2.73-3.8s2.65.85,2.65,3.07Z" transform="translate(-13.71 -8.27)"></path><path class="cls-2" d="M61.63,20,62.9,26.3H63L64.19,20h1.74l-2.2,8.31v5.94H61.89V28.3L59.75,20Z" transform="translate(-13.71 -8.27)"></path><path class="cls-2" d="M74.66,23.91H72.82v-1c0-1.14-.16-1.72-.77-1.72-.82,0-.91.62-.91,2V31c0,1.37.07,2,.87,2,.63,0,.81-.51.81-1.64V30.08h1.86v1.31c0,2.23-.61,3.09-2.71,3.09s-2.7-1.15-2.7-3.83V23.57c0-2.69.56-3.8,2.74-3.8s2.65.85,2.65,3.07Z" transform="translate(-13.71 -8.27)"></path><path class="cls-2" d="M80,20v1.5H77.55V26h2.3v1.51h-2.3v5.18H80.1v1.51H75.71V20Z" transform="translate(-13.71 -8.27)"></path><path class="cls-2" d="M83.71,20c2.09,0,3,.55,3,2.37v2.3c0,1.44-.52,2.07-2,2.23,1.58.12,2,.77,2,2.38v5H84.87v-5c0-1.27-.17-1.62-1.46-1.62H83v6.61H81.23V20ZM83,26.2h.38c1.19,0,1.44-.37,1.44-1.62V23c0-1.24-.25-1.62-1.44-1.62H83Z" transform="translate(-13.71 -8.27)"></path><path class="cls-2" d="M92.65,20v1.5H90.93V34.24H89.07V21.49H87.35V20Z" transform="translate(-13.71 -8.27)"></path><path class="cls-2" d="M95.25,20V34.24H93.37V20Z" transform="translate(-13.71 -8.27)"></path><path class="cls-2" d="M101.05,20v1.5H98.63v4.65h2.28v1.51H98.63v6.59H96.79V20Z" transform="translate(-13.71 -8.27)"></path><path class="cls-2" d="M103.86,20V34.24H102V20Z" transform="translate(-13.71 -8.27)"></path><path class="cls-2" d="M109.66,20v1.5h-2.42V26h2.3v1.51h-2.3v5.18h2.55v1.51H105.4V20Z" transform="translate(-13.71 -8.27)"></path><path class="cls-2" d="M112.86,20c3,0,3.62.81,3.62,4v6.34c0,3.13-.63,4-3.62,4h-1.94V20Zm-.1,12.78h.38c1.23,0,1.48-.34,1.48-1.56V23c0-1.22-.27-1.56-1.48-1.56h-.38Z" transform="translate(-13.71 -8.27)"></path><polygon class="cls-1" points="7.96 145.46 7.96 131.95 27.82 131.95 27.82 135.11 15.94 135.11 15.94 137.04 25.99 137.04 25.99 140.19 15.94 140.19 15.94 142.3 28.28 142.3 28.28 145.46 7.96 145.46"></polygon><path class="cls-1" d="M58.86,144.15a1.52,1.52,0,0,0-1.15-.91,7.35,7.35,0,0,0-2.06-.25c-1.76,0-2.54.28-2.54.78,0,2,14,.75,14,5.66,0,3.13-4.7,4.66-11.39,4.66-6.42,0-10.61-2.08-10.78-4.53h7.64a1.87,1.87,0,0,0,1.32,1.07,7.07,7.07,0,0,0,2.27.34c2,0,3.32-.35,3.32-1,0-2-14-.64-14-5.79,0-2.87,4.47-4.31,10.55-4.31,6.76,0,9.84,1.92,10.42,4.27Z" transform="translate(-13.71 -8.27)"></path><path class="cls-1" d="M79.05,146.07h3.14c2.46,0,3.79-.35,3.79-1.28s-1.35-1.41-3.21-1.41H79.05Zm0,3v4.71h-8V140.22h11.5c8.1,0,10.77,1.24,10.77,3.86,0,1.56-1.24,2.86-4.08,3.31,2.56.52,4.12.84,4.12,3.56,0,1.76-.1,2.36.84,2.36v.42H86.14a5.38,5.38,0,0,1-.4-2.37c0-1.77-.54-2.34-4.26-2.34Z" transform="translate(-13.71 -8.27)"></path><path class="cls-1" d="M106.22,143.38v2.26h3.32c1.59,0,2.75-.41,2.75-1.18,0-1.06-1.58-1.08-3.25-1.08Zm0,4.71v2.48h3.48c2,0,3.46-.22,3.46-1.23,0-1.18-1.85-1.25-4.41-1.25Zm-8,5.64V140.22h11.63c5.49,0,9.84.73,9.84,3.41,0,1.39-1.63,2.4-3.18,2.93,2.64.38,4,1.64,4,3.09,0,3-4.15,4.08-10.48,4.08Z" transform="translate(-13.71 -8.27)"></path><path class="cls-1" d="M32.69,74.15a6,6,0,0,0-3.16,5.62c.14,2.7,1.76,4.26,4.1,5.39-1.34,2.16-1.92,4.33-.73,6.65S36.25,95,38.76,95c0,.7,0,1.22,0,1.74a5.7,5.7,0,0,0,7.63,5.59c1.09-.37,1.42-.1,1.77.91a5.73,5.73,0,0,0,9.4,2.32c.31-.29.64-.55,1-.86,1.61,2.07,3.55,3.11,6.13,2.69s3.94-2.33,4.87-4.64c2.34,1.21,4.56,1.44,6.73,0s2.67-3.66,2.51-6.18c2.54,0,4.72-.51,6.12-2.72s1-4.5-.18-6.78c2.41-.94,4.11-2.35,4.5-5s-.86-4.52-2.85-6a3.07,3.07,0,0,1,.33-.49,5.89,5.89,0,0,0-2.64-10.11c-.8-.17-.69-.59-.6-1.24a9.62,9.62,0,0,0,.19-3.41c-.62-3-3-4.53-6.4-4.3-.94.06-1.31-.09-1.41-1.15A5.44,5.44,0,0,0,70,50.27a21.65,21.65,0,0,0-4.12,1.13c-1-1.94-2.6-3.53-5.25-3.63s-4.42,1.31-5.77,3.57c-2-1.68-4.14-2.38-6.56-1.43s-3.45,3-3.77,5.57l-.84-.16c-5.21-1.08-8.4,3.34-7.12,7.34.23.72-.1.94-.8,1.1-3.46.83-5.3,3.45-4.65,6.81A18.4,18.4,0,0,0,32.69,74.15Z" transform="translate(-13.71 -8.27)"></path><path class="cls-1" d="M92.13,80.78a1.59,1.59,0,0,0-.13.39A8.78,8.78,0,0,1,88.7,88a1.77,1.77,0,0,0-.32,1.38,8.47,8.47,0,0,1-6,9.48,6.24,6.24,0,0,0-1.06.6,5.21,5.21,0,0,0,1,.93q9.4,5.07,18.85,10.09c.32.17.67.31,1,.46,0-3.89,0-7.65,0-11.41a2,2,0,0,1,.76-1.41c1.39-1,2.87-1.9,4.31-2.84l5.39-3.51Z" transform="translate(-13.71 -8.27)"></path><path class="cls-1" d="M68.43,131.35c.35-.42.61-.7.86-1,2.12-2.65,4.23-5.33,6.39-8a1.83,1.83,0,0,1,1.25-.66c1.47.08,2.94.31,4.41.48l7.35.82-8.45-20.51c-2.72,3.21-4.61,4-8.62,3.81a2,2,0,0,0-1.34.66,8.1,8.1,0,0,1-6.71,3.13,29.33,29.33,0,0,1-4.2-.77C62.38,116.64,65.37,123.92,68.43,131.35Z" transform="translate(-13.71 -8.27)"></path><path class="cls-1" d="M112.39,122.74a4.49,4.49,0,0,0-4.56,4.57,4.55,4.55,0,0,0,4.55,4.49,4.49,4.49,0,0,0,4.53-4.6A4.42,4.42,0,0,0,112.39,122.74Z" transform="translate(-13.71 -8.27)"></path><path class="cls-3" d="M32.69,74.15a18.4,18.4,0,0,1-1.59-3.58c-.65-3.36,1.19-6,4.65-6.81.7-.16,1-.38.8-1.1-1.28-4,1.91-8.42,7.12-7.34l.84.16c.32-2.53,1.3-4.6,3.77-5.57s4.54-.25,6.56,1.43c1.35-2.26,3.09-3.67,5.77-3.57s4.2,1.69,5.25,3.63A21.65,21.65,0,0,1,70,50.27a5.44,5.44,0,0,1,5.89,5.08c.1,1.06.47,1.21,1.41,1.15,3.36-.23,5.78,1.34,6.4,4.3a9.62,9.62,0,0,1-.19,3.41c-.09.65-.2,1.07.6,1.24a5.89,5.89,0,0,1,2.64,10.11,3.07,3.07,0,0,0-.33.49c2,1.53,3.24,3.41,2.85,6s-2.09,4-4.5,5c1.18,2.28,1.61,4.53.18,6.78s-3.58,2.76-6.12,2.72c.16,2.52-.33,4.72-2.51,6.18s-4.39,1.22-6.73,0c-.93,2.31-2.23,4.21-4.87,4.64s-4.52-.62-6.13-2.69c-.38.31-.71.57-1,.86a5.73,5.73,0,0,1-9.4-2.32c-.35-1-.68-1.28-1.77-.91a5.7,5.7,0,0,1-7.63-5.59c0-.52,0-1,0-1.74-2.51,0-4.64-.83-5.86-3.19s-.61-4.49.73-6.65c-2.34-1.13-4-2.69-4.1-5.39A6,6,0,0,1,32.69,74.15Zm27,28.63a25.06,25.06,0,1,0-25-25.27A25.14,25.14,0,0,0,59.68,102.78Z" transform="translate(-13.71 -8.27)"></path><path class="cls-3" d="M92.13,80.78l20.51,11-5.39,3.51c-1.44.94-2.92,1.82-4.31,2.84a2,2,0,0,0-.76,1.41c-.06,3.76,0,7.52,0,11.41-.33-.15-.68-.29-1-.46q-9.44-5-18.85-10.09a5.21,5.21,0,0,1-1-.93,6.24,6.24,0,0,1,1.06-.6,8.47,8.47,0,0,0,6-9.48A1.77,1.77,0,0,1,88.7,88a8.78,8.78,0,0,0,3.3-6.8A1.59,1.59,0,0,1,92.13,80.78Z" transform="translate(-13.71 -8.27)"></path><path class="cls-3" d="M68.43,131.35c-3.06-7.43-6.05-14.71-9.06-22a29.33,29.33,0,0,0,4.2.77A8.1,8.1,0,0,0,70.28,107a2,2,0,0,1,1.34-.66c4,.18,5.9-.6,8.62-3.81L88.69,123l-7.35-.82c-1.47-.17-2.94-.4-4.41-.48a1.83,1.83,0,0,0-1.25.66c-2.16,2.63-4.27,5.31-6.39,8C69,130.65,68.78,130.93,68.43,131.35Z" transform="translate(-13.71 -8.27)"></path><path class="cls-1" d="M59.68,102.78a25.06,25.06,0,1,1,25.21-25A25.08,25.08,0,0,1,59.68,102.78Zm-12-25.86.65-6.65a14.89,14.89,0,0,1-6.86-4.66c-2.09,2.6-3.88,8.27-3.59,11.31Zm-9.92,1.83a22.69,22.69,0,0,0,3.66,11.41c1.81-2.48,4.34-3.74,6.92-4.78l-.67-6.63ZM78.2,65.56a14.7,14.7,0,0,1-6.36,4.51,1.18,1.18,0,0,0-.51,1c.09,1.64.34,3.26.41,4.89,0,.84.3,1.12,1.13,1.1,1.92,0,3.84,0,5.76,0C82,77,82,77,81.46,73.68A20.6,20.6,0,0,0,78.2,65.56Zm0,24.58a21,21,0,0,0,3.49-10.76c0-.22-.6-.67-.93-.67-2.67-.06-5.36,0-8,0-.72,0-1,.25-1,1-.1,1.68-.33,3.34-.42,5a1.18,1.18,0,0,0,.52,1A14.67,14.67,0,0,1,78.22,90.14ZM67.07,62c-2.35.47-4.29.85-6.23,1.28-.26.06-.65.39-.66.61,0,2.11,0,4.21,0,6.66l9.52-1.3ZM69.59,86.7a31.74,31.74,0,0,0-9.39-1.32v6.74L67,93.78Zm-11-23.25-6-1.61L50,69.19l8.59,1.29Zm0,28.78v-7L50,86.51l2.68,7.32ZM60.21,77c3.22,0,6.33,0,9.45,0a1,1,0,0,0,.64-.74c-.08-1.59-.24-3.19-.45-4.77a.86.86,0,0,0-.72-.5c-2.95.44-5.89.94-8.92,1.43Zm0,6.28c3,.49,5.85.94,8.68,1.43.67.12,1,0,1-.73.11-1.35.26-2.7.41-4,.11-.9-.15-1.3-1.16-1.28-2.64.07-5.28,0-7.93,0a9.25,9.25,0,0,0-1,.11ZM49.79,70.93l-.55,6h9.31V72.27Zm0,13.8,8.79-1.33V78.79H49.23ZM71,68.46a11.34,11.34,0,0,0,5.76-3.73,1.21,1.21,0,0,0-.06-1.18C75,62,73.31,60.43,71.55,58.94a1.06,1.06,0,0,0-1,0c-.81.63-1.55,1.36-2.25,2Zm-2.72,26.3c.7.62,1.41,1.32,2.19,1.93a1.09,1.09,0,0,0,1,.07q2.68-2.27,5.27-4.65a1.06,1.06,0,0,0,.14-1A11.34,11.34,0,0,0,71,87.21ZM48.67,68.53c.59-1.77,1.09-3.36,1.65-4.93.31-.86,1.1-1.77,1-2.51S50,59.88,49.41,59.2s-.92-.68-1.49-.18L43,63.39c-.64.57-.46,1.08,0,1.65A13.86,13.86,0,0,0,48.67,68.53Zm-.05,18.65a12.48,12.48,0,0,0-5.56,3.49c-.25.3-.48,1-.32,1.22a19.64,19.64,0,0,0,5.95,5.21l2.66-2.35ZM60.2,99.29c2.63-.23,4.17-1.86,5.66-3.87a11.38,11.38,0,0,0-5.66-1.14Zm0-42.93V61.7L66,60.43C64.39,58.24,62.83,56.67,60.24,56.36Zm-1.69.13c-2.13.61-3.48,2-4.86,3.88l4.86,1.24Zm-4.87,38.8c1.41,1.93,2.77,3.31,4.86,3.89V94.07ZM50,57.66l2.27,1.79,3-3.36-.1-.21ZM50,98l5.22,1.78.08-.19-3-3.38Zm17.36-1.8-3.06,3.41.07.19L69.62,98Zm0-36.74,2.23-1.82-5.22-1.76,0,.22Z" transform="translate(-13.71 -8.27)"></path><path class="cls-3" d="M47.71,76.92h-9.8c-.29-3,1.5-8.71,3.59-11.31a14.89,14.89,0,0,0,6.86,4.66Z" transform="translate(-13.71 -8.27)"></path><path class="cls-3" d="M37.79,78.75H47.7l.67,6.63c-2.58,1-5.11,2.3-6.92,4.78A22.69,22.69,0,0,1,37.79,78.75Z" transform="translate(-13.71 -8.27)"></path><path class="cls-3" d="M78.2,65.56a20.6,20.6,0,0,1,3.26,8.12C82,77,82,77,78.63,77c-1.92,0-3.84,0-5.76,0-.83,0-1.09-.26-1.13-1.1-.07-1.63-.32-3.25-.41-4.89a1.18,1.18,0,0,1,.51-1A14.7,14.7,0,0,0,78.2,65.56Z" transform="translate(-13.71 -8.27)"></path><path class="cls-3" d="M78.22,90.14a14.67,14.67,0,0,0-6.37-4.53,1.18,1.18,0,0,1-.52-1c.09-1.67.32-3.33.42-5,0-.72.28-1,1-1,2.67,0,5.36,0,8,0,.33,0,.94.45.93.67A21,21,0,0,1,78.22,90.14Z" transform="translate(-13.71 -8.27)"></path><path class="cls-3" d="M67.07,62l2.6,7.25-9.52,1.3c0-2.45,0-4.55,0-6.66,0-.22.4-.55.66-.61C62.78,62.84,64.72,62.46,67.07,62Z" transform="translate(-13.71 -8.27)"></path><path class="cls-3" d="M69.59,86.7,67,93.78,60.2,92.12V85.38A31.74,31.74,0,0,1,69.59,86.7Z" transform="translate(-13.71 -8.27)"></path><path class="cls-3" d="M58.57,63.45v7L50,69.19l2.64-7.35Z" transform="translate(-13.71 -8.27)"></path><path class="cls-3" d="M58.55,92.23l-5.9,1.6L50,86.51l8.58-1.33Z" transform="translate(-13.71 -8.27)"></path><path class="cls-3" d="M60.21,77V72.39c3-.49,6-1,8.92-1.43a.86.86,0,0,1,.72.5c.21,1.58.37,3.18.45,4.77a1,1,0,0,1-.64.74C66.54,77,63.43,77,60.21,77Z" transform="translate(-13.71 -8.27)"></path><path class="cls-3" d="M60.21,83.28V78.79a9.25,9.25,0,0,1,1-.11c2.65,0,5.29,0,7.93,0,1,0,1.27.38,1.16,1.28-.15,1.35-.3,2.7-.41,4-.06.7-.36.85-1,.73C66.06,84.22,63.23,83.77,60.21,83.28Z" transform="translate(-13.71 -8.27)"></path><path class="cls-3" d="M49.79,70.93l8.76,1.34v4.65H49.24Z" transform="translate(-13.71 -8.27)"></path><path class="cls-3" d="M49.79,84.73l-.56-5.94h9.35V83.4Z" transform="translate(-13.71 -8.27)"></path><path class="cls-3" d="M71,68.46l-2.72-7.53c.7-.63,1.44-1.36,2.25-2a1.06,1.06,0,0,1,1,0c1.76,1.49,3.49,3,5.16,4.61a1.21,1.21,0,0,1,.06,1.18A11.34,11.34,0,0,1,71,68.46Z" transform="translate(-13.71 -8.27)"></path><path class="cls-3" d="M68.29,94.76,71,87.21a11.34,11.34,0,0,1,5.88,3.89,1.06,1.06,0,0,1-.14,1q-2.58,2.39-5.27,4.65a1.09,1.09,0,0,1-1-.07C69.7,96.08,69,95.38,68.29,94.76Z" transform="translate(-13.71 -8.27)"></path><path class="cls-3" d="M48.67,68.53A13.86,13.86,0,0,1,43,65c-.49-.57-.67-1.08,0-1.65L47.92,59c.57-.5,1-.39,1.49.18s1.72,1.17,1.86,1.89-.64,1.65-1,2.51C49.76,65.17,49.26,66.76,48.67,68.53Z" transform="translate(-13.71 -8.27)"></path><path class="cls-3" d="M48.62,87.18l2.73,7.57L48.69,97.1a19.64,19.64,0,0,1-5.95-5.21c-.16-.21.07-.92.32-1.22A12.48,12.48,0,0,1,48.62,87.18Z" transform="translate(-13.71 -8.27)"></path><path class="cls-3" d="M60.2,99.29v-5a11.38,11.38,0,0,1,5.66,1.14C64.37,97.43,62.83,99.06,60.2,99.29Z" transform="translate(-13.71 -8.27)"></path><path class="cls-3" d="M60.24,56.36c2.59.31,4.15,1.88,5.74,4.07L60.24,61.7Z" transform="translate(-13.71 -8.27)"></path><path class="cls-3" d="M58.55,56.49v5.12l-4.86-1.24C55.07,58.48,56.42,57.1,58.55,56.49Z" transform="translate(-13.71 -8.27)"></path><path class="cls-3" d="M53.68,95.29l4.86-1.22v5.11C56.45,98.6,55.09,97.22,53.68,95.29Z" transform="translate(-13.71 -8.27)"></path><path class="cls-3" d="M50,57.66l5.18-1.78.1.21-3,3.36Z" transform="translate(-13.71 -8.27)"></path><path class="cls-3" d="M50,98l2.27-1.79,3,3.38-.08.19Z" transform="translate(-13.71 -8.27)"></path><path class="cls-3" d="M67.37,96.21,69.62,98l-5.24,1.8-.07-.19Z" transform="translate(-13.71 -8.27)"></path><path class="cls-3" d="M67.38,59.47l-3-3.36,0-.22,5.22,1.76Z" transform="translate(-13.71 -8.27)"></path><path class="cls-1" d="M111.35,126.86l.1-1.68c.67.19,1.24.34,1.79.54.06,0,.06.49,0,.52C112.69,126.46,112.12,126.62,111.35,126.86Z" transform="translate(-13.71 -8.27)"></path><path class="cls-4" d="M112.3,126.66c.8,0,1-.34,1-.71s-.19-.59-.87-.59h-1v1.3Zm-.9.8v2.17h-.85v-5.06h1.76c1,0,2,.25,2,1.4a1.19,1.19,0,0,1-1.09,1.19h0c.74.14.83.46.92,1a6.6,6.6,0,0,0,.32,1.45h-1.09c-.06-.28-.14-.62-.17-.9-.06-.44-.06-.85-.31-1.08a1.26,1.26,0,0,0-.8-.19h-.71m4.79-.3a3.82,3.82,0,1,0-3.8,3.56,3.67,3.67,0,0,0,3.8-3.56m-8.45,0a4.65,4.65,0,1,1,4.65,4.31,4.47,4.47,0,0,1-4.65-4.31" transform="translate(-13.71 -8.27)"></path></svg> 