<svg version="1.1" xmlns="http://www.w3.org/2000/svg" viewBox="0 0 514 514" width="36" height="36">
	<rect x="20" y="20" width="474" height="474" fill="#fff"/>
	<polygon points="217.9,313.9 317.9,257 217.9,200.1" fill="#fe0000"/>
	<path d="M505.5,8.5C499.9,2.8,493.2,0,485.4,0H28.6C20.8,0,14.1,2.8,8.5,8.5C2.8,14.1,0,20.8,0,28.6v456.9c0,7.8,2.8,14.4,8.5,20.1c5.6,5.6,12.3,8.5,20.1,8.5h456.9c7.7,0,14.4-2.8,20.1-8.5c5.6-5.7,8.5-12.3,8.5-20.1V28.6C514,20.8,511.2,14.1,505.5,8.5zM440.4,349.7c-4.4,16.6-17.4,29.6-33.8,34.1c-29.8,8.1-149.5,8.1-149.5,8.1s-119.7,0-149.5-8.1C91,379.4,78,366.3,73.6,349.7c-8-30-8-92.7-8-92.7s0-62.7,8-92.7c4.4-16.6,17.4-29.6,33.8-34.1c29.8-8.1,149.5-8.1,149.5-8.1s119.7,0,149.5,8.1c16.5,4.4,29.4,17.5,33.8,34.1c8,30,8,92.7,8,92.7S448.4,319.7,440.4,349.7z" fill="#fe0000"/>
</svg>