<?xml version="1.0" encoding="utf-8"?>
<!-- Generator: Adobe Illustrator 26.5.0, SVG Export Plug-In . SVG Version: 6.00 Build 0)  -->
<svg version="1.1" id="레이어_1" xmlns="http://www.w3.org/2000/svg" xmlns:xlink="http://www.w3.org/1999/xlink" x="0px"
	 y="0px" viewBox="0 0 253.2 220.1" style="enable-background:new 0 0 253.2 220.1;" xml:space="preserve">
<style type="text/css">
	.st0{fill:#603BFF;}
</style>
<path class="st0" d="M17.1,188.2c-8.8-0.6-16.4,6.1-17,14.9c-0.6,8.8,6.1,16.4,14.9,17c0.7,0,1.4,0,2.1,0h219.1
	c8.8,0.6,16.4-6.1,17-14.9s-6.1-16.4-14.9-17c-0.7,0-1.4,0-2.1,0H17.1z"/>
<path class="st0" d="M17.1,94.1c-8.8-0.5-16.4,6.2-16.9,15s6.2,16.4,15,16.9c0.7,0,1.3,0,2,0h219.1c8.8,0.5,16.4-6.2,16.9-15
	s-6.2-16.4-15-16.9c-0.7,0-1.3,0-2,0H17.1z"/>
<path class="st0" d="M17.1,0C8.2-0.5,0.6,6.1,0,14.9s6.1,16.4,14.9,17c0.7,0,1.4,0,2.1,0h219.1c8.8,0.6,16.4-6.1,17-14.9
	S247,0.6,238.2,0c-0.7,0-1.4,0-2.1,0H17.1z"/>
</svg>
