<svg xmlns="http://www.w3.org/2000/svg" viewBox="0 0 65 463.1" style="enable-background:new 0 0 65 463.1" xml:space="preserve"><path d="M95 .1v463H59v-20.9c-10.7-.4-20.5-.8-30.3-1.1-5.3-.2-5.8-.5-5.6-5.7.2-7.8.5-15.6.9-23.4.2-5.3.3-10.6.8-15.8.6-6.4 1.9-12.8 2-19.3 0-3.8 1.2-4.7 4.5-4.5 3.8.2 7.5.4 11 .5 1.1-15.9 2.1-31.3 3.2-46.7H22.6c-7.1 0-14.2-.1-21.4-.1.1-6.3.1-12.6.2-18.9.1-9.1.4-18.2.4-27.2 0-2.3-1.1-4.6-1.7-6.9v-14c2.2-.6 4.4-1.5 6.5-1.6 6.8-.2 13.5-.1 20.6-.1 0-4.6.2-8.1 0-11.5-.5-7.5-1.5-14.9-1.8-22.3-.2-5.7.6-6.1 6.4-6.2 9-.2 17.9-.5 26.9-.8v-13.4h-4.3c-13-.2-26-.5-39-.8-2 0-4.2.1-4-3 .3-5 .5-10 1.1-14.9 1.7-12.9 2.6-25.8.8-38.8-.2-2.3-.1-4.7.1-7 .1-4 1.8-5.9 6.2-5.5 5.1.4 10.2.1 15.6.1 1.2-15.1 2.3-29.9-.8-44.2-6.4 0-12-.1-17.7 0-4.8.1-4.9-.2-4.8-5 .1-14.1.2-28.1.2-42.1 0-6-.8-11.9-1.3-17.9-.2-3.1 1.2-4.5 4.4-4.5 4.8 0 9.6-.4 14.5-.5 9.6-.1 19.2 0 29.2 0 0-5.5-.2-9.9.1-14.1.1-1.8 1.3-3.4 2-5.1l34 .2z" style="fill:#0e0e0e"/></svg>