<svg xmlns="http://www.w3.org/2000/svg" viewBox="0 0 74 464" style="enable-background:new 0 0 74 464" xml:space="preserve"><path d="M74 107v22c-.5.6-.8 1.3-1 2-.7 7.1-1.6 14.2-2 21.4-.2 4.7-2.1 6.1-6.6 5.3-4.7-.8-9.5-1-15.8-1.6 2.1 4.6 4.1 8 5.1 11.8 1.1 4.4 1.8 9 2.1 13.5.7 11 1.1 21.9 1.7 32.9.2 3-1 4.4-3.9 4.5-2.5.1-4.9.2-7.6.4.2 2.5-.4 5.6.8 6.6 5.2 4.5 3.5 10.8 4.2 16.1 1.4 10.2 1.3 20.5 1.8 30.8.3 6.9.1 6.9-6.6 7.2-12.4.6-24.8 1.3-37.1 2v17h44.1c5.3 0 6.1.9 5.6 6.2-.2 2.5-1 5.4 0 7.3 2.5 4.7 1.2 9.3 1 14-.1 3.3.1 6.5.1 9.8 0 8.8.1 17.6 0 26.5-.1 3.6-1.9 5.7-6 5.5-6-.3-11.9-.1-17.5-.1v32.2c.6.1 1.3.2 1.9.3 10.5 1.3 10.7 1.9 10 12.8-.4 6.6.3 13.2.5 19.9 0 .8.3 2-.2 2.4-3.6 3.5-5.6 9.2-12.7 7.8-5.2-1-10.6-.6-15.9-.7-3.6-.1-7.2 0-11 0V464h-31V1L6.2.8c5.5 3.2.9 9 3.4 13.3h2.3c16 0 31.9 0 47.9-.2 4.7-.1 6.4 1.3 5.5 6-.5 2.6-1.1 5.9 0 7.8 2.9 5 .6 9.7.6 14.5v8.3c-.1 9.1-.2 18.2-.5 27.3-.1 4-2.4 5.2-6.3 5.1-13-.4-25.9-.4-38.9-.5H9.9v.9l8.2.7c13.7 1.3 27.3 2.7 41 3.8C73.4 89 70 86.7 71.5 102.4c.2 1.6 1.7 3.1 2.5 4.6z" style="fill:#0e0e0e"/></svg>