<?xml version="1.0" encoding="utf-8"?>
<!-- Generator: Adobe Illustrator 25.4.1, SVG Export Plug-In . SVG Version: 6.00 Build 0)  -->
<svg version="1.1" id="Layer_1" xmlns="http://www.w3.org/2000/svg" xmlns:xlink="http://www.w3.org/1999/xlink" x="0px" y="0px"
	 viewBox="0 0 15.9 35" style="enable-background:new 0 0 15.9 35;" xml:space="preserve">
<style type="text/css">
	.st0{fill:#FF505E;}
</style>
<path class="st0" d="M15.8,7.6c-0.1,0-0.2-0.1-0.3-0.1c-1.5-0.6-2.9-1.3-4.3-2.1c-0.5-0.2-1-0.5-1.5-0.7C9.1,4.3,8.3,3.9,7.6,3.6
	L6,2.9C5,2.4,4,2,2.9,1.5C2.4,1.3,1.8,1.1,1.3,0.9C1.2,0.8,1,0.7,0.8,0.6c0-0.1-0.1-0.1-0.1-0.2C0.6,0.3,0.5,0,0.1,0.1
	C0.1,0.1,0.1,0,0,0l0,0v35h0.3c0.2,0,0.4,0,0.5-0.2C0.9,34.7,1,34.6,1,34.5c1.2-1.6,2.2-3.3,3.2-5L6.8,26c0.2-0.1,0.4-0.3,0.5-0.5
	c0.5-0.4,0.6-0.8,0.3-1.3c0-0.1-0.1-0.1-0.1-0.2c0,0,0,0,0-0.1c-0.2-0.4-0.1-0.9,0.3-1.2c0.1-0.1,0.2-0.3,0.2-0.4
	C8,22.2,8.1,22.1,8.2,22c0.7-1.3,1.5-2.6,2.3-3.9s1.6-2.5,2.3-3.8c0.1-0.1,0.3-0.1,0.4,0c0.1,0.2,0.1,0.4,0.4,0.4s0.1-0.2,0.1-0.4
	c0-0.9,0.2-1.8,0.6-2.6c0.1,0,0.2-0.2,0.2-0.3c0.1-0.1,0.2-0.2,0.2-0.3c0.4-0.5,0.6-1,0.6-1.6c0.3-0.4,0.5-0.8,0.6-1.3
	c0-0.1,0.1-0.3,0.1-0.4l0,0C15.9,7.7,15.9,7.6,15.8,7.6z"/>
</svg>
