<svg enable-background="new 0 0 2084.8 137.9" viewBox="0 0 2084.8 137.9" xmlns="http://www.w3.org/2000/svg">
<path clip-rule="evenodd" d="m1966.2 41.3c-28.8-14.3-42.2-31.8-131.2-.8-176.1 61.4-192.3 42.3-312 4s-161.2-10.4-245.2 5.6-104.8-18.3-156.6-28.7-75.4 85.9-139.9 94.6c-64.4 8.8-52.3-88.2-151.3-65.1s-116.3-15.1-194.6-10.4-62.7-67.8-155.4-16.7c-89.8 49.4-91.5-69.8-157.1-2.8-40.2 41-86.9-37.1-162.9 20.3-76 57.5-113.2 3.6-115.8.9-2.7-2.8-11.3-11.2-22.1-11-14.8.2-22.1 12.6-22.1 12.6v94.1l2084.8-.1v-102.8c-32.2 87.7-89.8 20.7-118.6 6.3z" fill="#000000" fill-rule="evenodd"/>
</svg>